<?xml version="1.0" encoding="UTF-8"?>
<svg id="_レイヤー_1" data-name="レイヤー 1" xmlns="http://www.w3.org/2000/svg" viewBox="0 0 300 100">
  <defs>
    <style>
      .cls-1 {
        letter-spacing: -.25em;
      }

      .cls-1, .cls-2, .cls-3, .cls-4, .cls-5, .cls-6 {
        font-family: NotoSerifJP-ExtraLight, 'Noto Serif JP';
        font-size: 10.12px;
        font-variation-settings: 'wght' 200;
        font-weight: 200;
      }

      .cls-1, .cls-2, .cls-3, .cls-4, .cls-5, .cls-6, .cls-7, .cls-8, .cls-9, .cls-10, .cls-11, .cls-12, .cls-13, .cls-14, .cls-15 {
        isolation: isolate;
      }

      .cls-1, .cls-2, .cls-3, .cls-4, .cls-5, .cls-6, .cls-8, .cls-16, .cls-9, .cls-10, .cls-11, .cls-12, .cls-13, .cls-14, .cls-15 {
        fill: #fff;
      }

      .cls-2 {
        letter-spacing: -.24em;
      }

      .cls-3 {
        letter-spacing: -.12em;
      }

      .cls-4 {
        letter-spacing: -.15em;
      }

      .cls-5 {
        letter-spacing: -.11em;
      }

      .cls-8, .cls-9, .cls-10, .cls-11, .cls-12, .cls-13, .cls-14, .cls-15 {
        font-family: Cinzel-SemiBold, Cinzel;
        font-weight: 600;
      }

      .cls-8, .cls-10, .cls-11, .cls-12, .cls-13, .cls-15 {
        font-size: 29.48px;
      }

      .cls-17 {
        fill: #5a5ae5;
      }

      .cls-18 {
        letter-spacing: 0em;
      }

      .cls-16 {
        stroke: #000;
      }

      .cls-16, .cls-19 {
        stroke-miterlimit: 10;
      }

      .cls-9 {
        letter-spacing: .04em;
      }

      .cls-9, .cls-14 {
        font-size: 32.76px;
      }

      .cls-10 {
        letter-spacing: .02em;
      }

      .cls-20 {
        letter-spacing: 0em;
      }

      .cls-11 {
        letter-spacing: .04em;
      }

      .cls-12, .cls-21 {
        letter-spacing: .03em;
      }

      .cls-13 {
        letter-spacing: .03em;
      }

      .cls-22 {
        letter-spacing: .02em;
      }

      .cls-19 {
        fill: none;
        stroke: #fff;
        stroke-width: 2px;
      }

      .cls-15 {
        letter-spacing: -.01em;
      }
    </style>
  </defs>
  <g id="_レイヤー_1-2" data-name=" レイヤー 1">
    <g class="cls-7">
      <text class="cls-9" transform="translate(105.07 54.5) scale(.5 1)"><tspan x="0" y="0">H</tspan></text>
    </g>
    <g class="cls-7">
      <text class="cls-11" transform="translate(119.5 54.5) scale(.56 1)"><tspan x="0" y="0">A</tspan></text>
      <text class="cls-13" transform="translate(131.87 54.5) scale(.56 1)"><tspan x="0" y="0">L</tspan></text>
      <text class="cls-13" transform="translate(142.17 54.5) scale(.56 1)"><tspan x="0" y="0">L</tspan></text>
      <text class="cls-15" transform="translate(152.42 54.5) scale(.56 1)"><tspan x="0" y="0">O</tspan></text>
      <text class="cls-11" transform="translate(166.18 54.5) scale(.56 1)"><tspan x="0" y="0">W</tspan></text>
      <text class="cls-8" transform="translate(182.81 54.5) scale(.56 1)"><tspan class="cls-22" x="0" y="0">E</tspan><tspan class="cls-21" x="18.78" y="0">E</tspan></text>
      <text class="cls-8" transform="translate(204 54.5) scale(.56 1)"><tspan x="0" y="0">N</tspan></text>
    </g>
    <g class="cls-7">
      <text class="cls-12" transform="translate(221.81 54.5) scale(.56 1)"><tspan x="0" y="0">N</tspan></text>
      <text class="cls-10" transform="translate(236.27 54.5) scale(.56 1)"><tspan x="0" y="0">I</tspan></text>
      <text class="cls-10" transform="translate(242.66 54.5) scale(.56 1)"><tspan x="0" y="0">G</tspan></text>
      <text class="cls-11" transform="translate(256.4 54.5) scale(.56 1)"><tspan x="0" y="0">H</tspan></text>
    </g>
    <g class="cls-7">
      <text class="cls-14" transform="translate(270.9 54.5) scale(.5 1)"><tspan x="0" y="0">T</tspan></text>
    </g>
    <g>
      <g class="cls-7">
        <text class="cls-1" transform="translate(152.99 70.49)"><tspan x="0" y="0">リ</tspan></text>
        <text class="cls-2" transform="translate(162.54 70.49)"><tspan x="0" y="0">ア</tspan></text>
        <text class="cls-6" transform="translate(171.49 70.49)"><tspan class="cls-20" x="0" y="0">ル</tspan><tspan class="cls-18" x="10.08" y="0">脱</tspan></text>
        <text class="cls-6" transform="translate(191.91 70.49)"><tspan x="0" y="0">出</tspan></text>
        <text class="cls-3" transform="translate(201.93 70.49)"><tspan x="0" y="0">ゲ</tspan></text>
        <text class="cls-5" transform="translate(211.36 70.49)"><tspan x="0" y="0">ー</tspan></text>
        <text class="cls-4" transform="translate(220.05 70.49)"><tspan x="0" y="0">ム</tspan></text>
      </g>
      <path class="cls-17" d="M150.55,68.32c.5-.17,1.04-.33,1.62-.5.53-.15,1.04-.28,1.53-.4-.5-.13-1.01-.27-1.52-.42-.56-.16-1.11-.32-1.66-.48-3.61.21-7.27.4-10.95.58-2.22.11-4.43.21-6.63.31,2.18.08,4.4.17,6.64.28,3.74.18,7.4.39,10.97.63h0Z"/>
      <path class="cls-17" d="M235.56,68.32c-.5-.17-1.04-.33-1.62-.5-.53-.15-1.04-.28-1.53-.4.5-.13,1.01-.27,1.52-.42.56-.16,1.11-.32,1.66-.48,3.61.21,7.27.4,10.95.58,2.22.11,4.43.21,6.63.31-2.18.08-4.4.17-6.64.28-3.74.18-7.4.39-10.97.63h0Z"/>
    </g>
  </g>
  <g id="_レイヤー_2" data-name=" レイヤー 2">
    <g>
      <path class="cls-16" d="M99.94,49.84c-2.55-3.44-7.06-4.7-10.82-3.12-3.33,1.39-5.51,4.78-5.48,8.53-1.64-1.69-4.18-2.14-6.24-1.11-1.93.96-3.1,3.04-2.93,5.23-1.61-1.49-3.73-2.07-5.43-1.4-1.28.5-2.03,1.6-2.24,1.91-.77,1.14-.89,2.28-.92,2.79-.68-1.15-1.34-1.21-1.47-1.21-1.03-.05-2.29,1.51-2.61,4.08-.41-2.64-1.67-4.24-2.67-4.16-.81.06-1.37,1.2-1.52,1.52,0-.49-.08-2.19-1.36-3.68-.38-.44-1.49-1.73-3.36-1.84-2.17-.12-3.58,1.47-3.76,1.68,0-.19-.1-3.26-2.64-4.8-2.06-1.25-4.85-.95-6.8.8-.02-.3-.42-5.47-4.72-7.76-3.71-1.97-8.69-.94-11.75,2.72,1.02-1.39,7.83-10.44,14.63-11.21.6-.07,2.64-.23,5.2-.14,2.89.11,5.25.5,6.87.83-.66,7.21,4.92,13.32,11.44,13.52,6.78.21,12.88-6.02,12.21-13.52,1.25-.25,3.03-.55,5.2-.69,3.2-.22,5.74,0,6.45.07,6.85.8,13.98,10.01,14.7,10.96h.02Z"/>
      <path class="cls-16" d="M64.58,54.1c-.98,1.37-2.32,1.92-2.91,2.13-.73-.32-2.21-1.08-3.21-2.7-2.17-3.5-.04-7.54.07-7.74.34,1.6,1.79,2.71,3.35,2.64,1.42-.07,2.66-1.1,3.01-2.54.46,1.05,1.1,2.94.78,5.21-.12.81-.28,1.9-1.08,3.01h0Z"/>
    </g>
    <circle class="cls-19" cx="60.82" cy="52.52" r="22.36"/>
  </g>
</svg>